# xmcd CD database file
#
# Track frame offsets:
#	150
#	15481
#	36760
#	61777
#	88338
#	105687
#	126176
#	151395
#	167546
#	186613
#	211106
#
# Disc length: 3115 seconds
#
# Revision: 0
# Processed by: cddbd v1.4PL0 Copyright (c) Steve Scherf et al.
# Submitted via: CDex 1.50beta10
#
DISCID=8d0c290b
DTITLE=Work Beats - Get-Going Grooves
DYEAR=2000
DGENRE=Jazz
TTITLE0=Yellow Day
TTITLE1=Groovetown
TTITLE2=Next Year, Rio
TTITLE3=Take Ten
TTITLE4=Out Of The Frying Pan
TTITLE5=Monday In The Park
TTITLE6=Sand In Hand
TTITLE7=Out Of The Wind
TTITLE8=Chateau de Sol
TTITLE9=Miles Away
TTITLE10=Sambone
EXTD=YEAR: 2000
EXTT0=
EXTT1=
EXTT2=
EXTT3=
EXTT4=
EXTT5=
EXTT6=
EXTT7=
EXTT8=
EXTT9=
EXTT10=
PLAYORDER=
